<?xml version="1.0" encoding="UTF-8"?>
<svg id="Layer_2" data-name="Layer 2" xmlns="http://www.w3.org/2000/svg" viewBox="0 0 143.88 143.88">
  <defs>
    <style>
      .cls-1 {
        fill: #fff;
      }
    </style>
  </defs>
  <g id="Layer_1-2" data-name="Layer 1">
    <circle cx="71.94" cy="71.94" r="71.94"/>
    <path class="cls-1" d="M113.69,50.14c-2.43,1.02-5.2,1.77-8.2,2.16,0-.04-.02-.07-.03-.11,3.26-2.46,5.7-5.66,6.94-9.27,.04-.11,.07-.21,.11-.32-.09,.06-.17,.13-.26,.19-2.42,1.76-5.47,3.04-8.87,3.65-.8,.14-1.61,.25-2.45,.32-1.84-1.9-4.13-3.35-6.71-4.19-1.6-.52-3.31-.81-5.09-.81-1.46,0-2.88,.21-4.23,.57-1.79,.48-3.47,1.23-4.96,2.24-2.91,1.96-5.15,4.84-6.33,8.22-.6,1.7-.94,3.53-.94,5.44,0,1.56,.23,3.07,.64,4.5-2.57-.28-5.07-.7-7.46-1.25-.4-.09-.8-.19-1.2-.29-11.81-2.96-21.11-9.08-25.3-16.71-1.54,2.57-2.44,5.62-2.44,8.9,0,2.74,.63,5.32,1.73,7.59,1.28,2.64,3.2,4.86,5.54,6.44-2.54-.29-4.92-.91-7.05-1.78-.05,.45-.08,.91-.08,1.38,0,1,.15,2.02,.42,3.03,.11,.43,.25,.85,.4,1.28,.89,2.41,2.5,4.72,4.68,6.59,2.26,1.94,5.13,3.41,8.48,4.02,.23,.04,.45,.06,.67,.07-1.52,.46-3.22,.72-5.03,.72-1.33,0-2.61-.15-3.8-.4,1.71,5.5,7.99,10.66,15.16,11.43-4.86,4.51-13.64,7.52-23.66,7.52-.06,0-.12,0-.18,0,6.92,3.89,14.87,6.06,22.55,6.7,26.76,2.24,47.1-17.55,49.44-46.55,.09-1.17,.1-2.3,.07-3.42,0-.13,0-.27,0-.4,2.96-1.95,6.12-4.76,7.46-7.44Z"/>
  </g>
</svg>