<?xml version="1.0" encoding="UTF-8"?>
<svg id="Layer_2" data-name="Layer 2" xmlns="http://www.w3.org/2000/svg" viewBox="0 0 74.85 71.26">
  <defs>
    <style>
      .cls-1 {
        fill: #fff;
      }
    </style>
  </defs>
  <g id="Layer_5" data-name="Layer 5">
    <g>
      <path class="cls-1" d="M36.06,62.8c0,1.52-.15,3.48,.05,5.41,.15,1.49-.31,2.69-1.62,2.93-2.49,.46-3.45-.38-3.39-2.64,.06-2.2,.32-4.4,.46-6.23-4.68-1.42-9.15-2.78-13.73-4.17-1.16,1.63-2.5,3.41-3.74,5.25-.7,1.04-1.41,1.33-2.5,.61-.36-.23-.87-.22-1.24-.44-1.44-.88-1.22-2.02-.4-3.2,1.15-1.66,2.31-3.31,3.5-5.02-2.07-1.52-4.44-2.68-6.01-4.53-2.72-3.2-5.04-6.76-7.27-10.32-.45-.72,.1-2.16,.37-3.22,1.41-5.53,4.34-10.26,7.92-14.64,1.44-1.76,2.89-3.5,4.25-5.31,.25-.34,.28-1.04,.12-1.45-.27-.68-.73-1.3-1.19-1.88-1.35-1.72-2.22-3.48-.37-5.87,.81,.57,1.8,1.02,2.43,1.77,2.44,2.9,4.81,4.13,8.92,2.41,3.48-1.46,7.65-1.38,11.54-1.76,1.8-.17,2.73-.43,2.8-2.61,.08-2.49,.86-4.95,1.33-7.43,.23,0,.45,0,.68,.01,.14,.23,.27,.46,.51,.87,.27-.51,.5-.92,.72-1.33,1.82,.51,2.56,1.74,2.51,3.58-.05,2.09-.1,4.18,.02,6.27,.04,.61,.51,1.48,1.02,1.72,4.87,2.29,9.83,4.38,14.66,6.74,1.14,.55,1.6,.45,2.34-.39,2.29-2.62,4.66-5.18,6.99-7.76,.09,.2,.18,.39,.27,.59,.73,.14,1.47,.28,2.4,.46,.35,.73,.69,1.9,1.39,2.77,1,1.25,.15,2.03-.49,2.82-1.97,2.41-4.02,4.75-5.98,7.04,2.1,2.7,4.27,5.35,6.28,8.11,2.24,3.06,3.3,6.63,3.23,10.34-.03,1.44-1,3.23-2.11,4.22-3.48,3.09-7.22,5.9-10.9,8.77-.97,.76-2.01,1.05-.7,2.71,1.09,1.39,1.57,3.46,1.75,5.29,.09,.86-1.02,2.03-1.86,2.7-.29,.23-1.72-.47-2.17-1.07-1.15-1.55-2-3.33-3.09-4.94-.3-.44-1.09-.94-1.54-.85-5.99,1.16-11.96,2.41-18.17,3.69Zm1.58-9.43c11.67-.31,19.22-2.85,26.66-9.32,2.98-2.59,3.05-2.63,1.11-6.18-2.6-4.75-6-8.77-10.6-11.82-6.98-4.63-14.62-6.2-22.84-5.58-6.17,.47-11.99,1.96-16.29,6.73-2.44,2.7-4.45,5.78-6.64,8.71-1.84,2.47-1.75,2.73,.19,5.24,3.4,4.4,8.35,6.58,13.04,9.13,1.12,.61,2.28,1.33,3.5,1.52,3.93,.64,7.9,1.06,11.86,1.56Z"/>
      <path class="cls-1" d="M35.77,51.55c-7.93,.75-14.03-7.39-13.96-13.57,.09-8.32,8.23-15.7,15.15-15.34,9.13,.48,13.8,4.84,14.09,14.69,.24,8.1-6.45,14.2-15.27,14.22Zm9.27-15.65c.18-3.82-3.57-8.71-8.95-8.48-5.06,.22-8.02,4.06-8.46,9.73-.35,4.54,4.58,8.32,8.72,8.72,4.41,.42,8.63-4.64,8.69-9.97Z"/>
    </g>
  </g>
</svg>