<?xml version="1.0" encoding="UTF-8"?>
<svg id="Layer_2" data-name="Layer 2" xmlns="http://www.w3.org/2000/svg" viewBox="0 0 143.88 143.88">
  <defs>
    <style>
      .cls-1 {
        fill: #fff;
      }
    </style>
  </defs>
  <g id="Layer_1-2" data-name="Layer 1">
    <circle cx="71.94" cy="71.94" r="71.94"/>
    <g>
      <path class="cls-1" d="M87.62,33.38h-31.51c-12.49,0-22.65,10.17-22.65,22.8v31.51c0,12.49,10.16,22.65,22.65,22.65h31.51c12.63,0,22.8-10.16,22.8-22.65v-31.51c0-12.63-10.17-22.8-22.8-22.8Zm15.54,54.89c0,8.13-6.68,14.96-14.96,14.96H55.67c-8.28,0-14.96-6.82-14.96-14.96V55.6c0-8.28,6.68-14.96,14.96-14.96h32.53c8.28,0,14.96,6.68,14.96,14.96v32.67Z"/>
      <path class="cls-1" d="M71.94,52.99c-10.46,0-18.88,8.57-18.88,19.02s8.42,18.88,18.88,18.88,18.88-8.42,18.88-18.88-8.42-19.02-18.88-19.02Zm0,32.09c-7.26,0-13.21-5.95-13.21-13.07s5.95-13.22,13.21-13.22,13.22,5.81,13.22,13.22-5.95,13.07-13.22,13.07Z"/>
      <circle class="cls-1" cx="92.13" cy="51.54" r="4.65"/>
    </g>
  </g>
</svg>